<svg xmlns="http://www.w3.org/2000/svg"  viewBox="0 0 100 100" width="100px" height="100px"><path d="M 31 17.988281 C 23.82 17.988281 18 23.808281 18 30.988281 L 18 69.988281 C 18 77.168281 23.82 82.988281 31 82.988281 L 70 82.988281 C 77.179 82.988281 83 77.168281 83 69.988281 L 83 34.5 L 83 30.988281 C 83 23.808281 77.18 17.988281 70 17.988281 L 31 17.988281 z M 31 19.988281 L 70 19.988281 C 70.683969 19.988281 71.350574 20.058264 72 20.177734 L 72 22 L 52.5 22 C 52.224 22 52 22.224 52 22.5 C 52 22.776 52.224 23 52.5 23 L 72 23 L 72 34.5 L 72 50.5 L 72 66.5 L 72 77.998047 C 70.053341 77.995272 68.106815 77.992796 66.160156 77.990234 L 32.839844 77.990234 C 27.399844 77.990234 23 73.580391 23 68.150391 L 23 49.490234 C 23 49.210234 22.78 48.990234 22.5 48.990234 C 22.22 48.990234 22 49.210234 22 49.490234 L 22 68.150391 C 22 74.140391 26.849844 78.990234 32.839844 78.990234 C 45.893503 78.99316 58.946388 78.997027 72 79 L 72 80.796875 C 71.350556 80.916352 70.683989 80.988281 70 80.988281 L 31 80.988281 C 24.925 80.988281 20 76.063281 20 69.988281 L 20 30.988281 C 20 24.913281 24.924 19.988281 31 19.988281 z M 73 20.412109 C 77.615151 21.719166 81 25.954572 81 30.988281 L 81 34 L 73 34 L 73 20.412109 z M 35.5 22 C 35.224 22 35 22.224 35 22.5 C 35 22.776 35.224 23 35.5 23 L 38.5 23 C 38.776 23 39 22.776 39 22.5 C 39 22.224 38.776 22 38.5 22 L 35.5 22 z M 41.5 22 C 41.224 22 41 22.224 41 22.5 C 41 22.776 41.224 23 41.5 23 L 48.5 23 C 48.776 23 49 22.776 49 22.5 C 49 22.224 48.776 22 48.5 22 L 41.5 22 z M 47 31 C 35.97 31 27 39.97 27 51 C 27 55.62 28.570703 59.879531 31.220703 63.269531 C 31.470703 63.609531 31.739531 63.93 32.019531 64.25 C 35.689531 68.39 41.05 71 47 71 C 52.96 71 58.320469 68.380234 61.980469 64.240234 C 62.270469 63.920234 62.539063 63.599766 62.789062 63.259766 C 65.429063 59.869766 67 55.62 67 51 C 67 39.97 58.03 31 47 31 z M 47 32 C 57.48 32 66 40.52 66 51 C 66 55.21 64.619063 59.109766 62.289062 62.259766 C 60.309063 59.179766 54.3 57 47 57 C 44.5 57 42.110625 57.259531 39.890625 57.769531 C 35.870625 58.689531 32.970937 60.319531 31.710938 62.269531 C 29.380938 59.119531 28 55.22 28 51 C 28 40.52 36.52 32 47 32 z M 73 35 L 81 35 L 81 50 L 73 50 L 73 35 z M 22.5 37.570312 C 22.22 37.570312 22 37.790312 22 38.070312 L 22 40.070312 C 22 40.340313 22.22 40.570312 22.5 40.570312 C 22.78 40.570312 23 40.340313 23 40.070312 L 23 38.070312 C 23 37.790312 22.78 37.570312 22.5 37.570312 z M 47 38 C 43.14 38 40 41.589 40 46 C 40 50.411 43.14 54 47 54 C 50.86 54 54 50.411 54 46 C 54 41.589 50.86 38 47 38 z M 47 39 C 50.309 39 53 42.141 53 46 C 53 49.859 50.309 53 47 53 C 43.691 53 41 49.859 41 46 C 41 42.141 43.691 39 47 39 z M 22.5 41.570312 C 22.22 41.570312 22 41.790312 22 42.070312 L 22 46.070312 C 22 46.340313 22.22 46.570313 22.5 46.570312 C 22.78 46.570312 23 46.340313 23 46.070312 L 23 42.070312 C 23 41.790312 22.78 41.570312 22.5 41.570312 z M 73 51 L 81 51 L 81 66 L 73 66 L 73 51 z M 47 58 C 54.03 58 60.120859 60.229375 61.630859 63.109375 C 58.140859 67.319375 52.88 70 47 70 C 41.12 70 35.859141 67.319141 32.369141 63.119141 C 32.729141 62.429141 33.360937 61.760156 34.210938 61.160156 C 35.620937 60.150156 37.639375 59.300234 40.109375 58.740234 C 42.259375 58.250234 44.57 58 47 58 z M 73 67 L 81 67 L 81 69.988281 C 81 75.022034 77.615212 79.257436 73 80.564453 L 73 79 L 73 78 L 73 67 z"/></svg>